<svg xmlns="http://www.w3.org/2000/svg" fill="none" viewBox="0 0 394 80"><path fill="#000" d="m262 0h68l-26.5 37.5L262 75V0Z"/><path fill="#000" fill-rule="evenodd" d="M149 0v75h29V0h-29Zm-20 0H80v75h49V0Z" clip-rule="evenodd"/><path fill="#000" d="M0 0h49v75H0V0Zm100 0h49v75h-49V0Z"/><path fill="#000" fill-rule="evenodd" d="M68 0v75h29V0H68Z" clip-rule="evenodd"/><circle cx="225" cy="37" r="15" fill="#fff"/><circle cx="225" cy="37" r="7" fill="#000"/><path fill="#000" d="m262 0h68l-26.5 37.5L262 75V0Z"/><path fill="#000" fill-rule="evenodd" d="M149 0v75h29V0h-29Zm-20 0H80v75h49V0Z" clip-rule="evenodd"/><path fill="#000" d="M0 0h49v75H0V0Zm100 0h49v75h-49V0Z"/><path fill="#000" fill-rule="evenodd" d="M68 0v75h29V0H68Z" clip-rule="evenodd"/><circle cx="225" cy="37" r="15" fill="#fff"/><circle cx="225" cy="37" r="7" fill="#000"/></svg>