<svg height="18" viewBox="0 0 284 65" fill="none" xmlns="http://www.w3.org/2000/svg"><path d="m141.04 16.005c-11.37 11.37-28.5 11.37-39.87 0L16.04 16.005C4.67 27.375 4.67 44.505 16.04 55.875L16.04 55.875C27.41 67.245 44.54 67.245 55.91 55.875L141.04 55.875C152.41 67.245 169.54 67.245 180.91 55.875L267.04 55.875C278.41 67.245 295.54 67.245 306.91 55.875L306.91 55.875C318.28 44.505 318.28 27.375 306.91 16.005L267.04 16.005C255.67 4.635 238.54 4.635 227.17 16.005L141.04 16.005Z" fill="black"/><path d="m141.04 16.005c-11.37 11.37-28.5 11.37-39.87 0L16.04 16.005C4.67 27.375 4.67 44.505 16.04 55.875L16.04 55.875C27.41 67.245 44.54 67.245 55.91 55.875L141.04 55.875C152.41 67.245 169.54 67.245 180.91 55.875L267.04 55.875C278.41 67.245 295.54 67.245 306.91 55.875L306.91 55.875C318.28 44.505 318.28 27.375 306.91 16.005L267.04 16.005C255.67 4.635 238.54 4.635 227.17 16.005L141.04 16.005Z" fill="black"/><path d="m141.04 16.005c-11.37 11.37-28.5 11.37-39.87 0L16.04 16.005C4.67 27.375 4.67 44.505 16.04 55.875L16.04 55.875C27.41 67.245 44.54 67.245 55.91 55.875L141.04 55.875C152.41 67.245 169.54 67.245 180.91 55.875L267.04 55.875C278.41 67.245 295.54 67.245 306.91 55.875L306.91 55.875C318.28 44.505 318.28 27.375 306.91 16.005L267.04 16.005C255.67 4.635 238.54 4.635 227.17 16.005L141.04 16.005Z" fill="black"/></svg>